<svg xmlns="http://www.w3.org/2000/svg" width="310" height="80" viewBox="0 0 310 80" fill="none"><path d="M6.6665 37.3273V23.2073L35.5117 6.66675L47.4128 13.6259L6.6665 37.3273Z" fill="#2583DB"></path><path d="M53.7659 17.3577L41.8647 24.3168L52.1522 30.2674V42.3702H64.1542V23.4091L53.7659 17.3577Z" fill="#1FA92F"></path><path d="M64.154 56.5911V42.8745L23.4077 66.2734L35.4097 73.3334L64.154 56.5911Z" fill="#1FA92F"></path><path d="M18.6685 37.6294H6.6665V56.5905L17.0548 62.7428L28.9559 55.6828L18.6685 49.5305V37.6294Z" fill="#2583DB"></path><path d="M27.9514 47.8371C27.7864 47.8371 27.3438 47.8371 27.3438 47.8371C27.3438 47.8371 27.3438 47.4169 27.3438 47.2519V32.6677C27.3438 32.5026 27.3438 32.0825 27.3438 32.0825C27.3438 32.0825 27.7864 32.0825 27.9514 32.0825H30.9448C31.2149 32.0825 31.4174 32.1575 31.5525 32.3076C31.6875 32.4576 31.7775 32.5627 31.8225 32.6227L35.4236 38.8795L39.0246 32.6227C39.0696 32.5627 39.1597 32.4576 39.2947 32.3076C39.4297 32.1575 39.6323 32.0825 39.9024 32.0825H42.8957C43.0608 32.0825 43.4809 32.0825 43.4809 32.0825C43.4809 32.0825 43.4809 32.5026 43.4809 32.6677V47.2519C43.4809 47.4169 43.4809 47.8371 43.4809 47.8371C43.4809 47.8371 43.0608 47.8371 42.8957 47.8371H39.5198C39.3547 47.8371 38.9346 47.8371 38.9346 47.8371C38.9346 47.8371 38.9346 47.4169 38.9346 47.2519V39.9598L36.909 43.5158C36.834 43.6358 36.6042 44.056 36.6042 44.056C36.6042 44.056 36.3238 44.056 36.0988 44.056H34.7259C34.5158 44.056 34.2598 44.056 34.2598 44.056C34.2598 44.056 34.0132 43.6358 33.9381 43.5158L31.9126 39.9598V47.2519C31.9126 47.4169 31.9126 47.8371 31.9126 47.8371C31.9126 47.8371 31.4924 47.8371 31.3274 47.8371H27.9514Z" fill="#2583DB"></path><path d="M73.0341 41V22.3334H76.6075L84.5541 35.5067H82.6608L90.4741 22.3334H94.0208L94.0741 41H90.0208L89.9941 28.5467H90.7408L84.5008 39.0267H82.5541L76.1808 28.5467H77.0875V41H73.0341ZM103.969 41.2133C102.441 41.2133 101.081 40.8933 99.8895 40.2533C98.7162 39.6133 97.7828 38.7422 97.0895 37.64C96.414 36.52 96.0762 35.2489 96.0762 33.8267C96.0762 32.3867 96.414 31.1156 97.0895 30.0134C97.7828 28.8934 98.7162 28.0222 99.8895 27.4C101.081 26.76 102.441 26.44 103.969 26.44C105.481 26.44 106.832 26.76 108.023 27.4C109.214 28.0222 110.147 28.8845 110.823 29.9867C111.498 31.0889 111.836 32.3689 111.836 33.8267C111.836 35.2489 111.498 36.52 110.823 37.64C110.147 38.7422 109.214 39.6133 108.023 40.2533C106.832 40.8933 105.481 41.2133 103.969 41.2133ZM103.969 37.8C104.663 37.8 105.285 37.64 105.836 37.32C106.387 37 106.823 36.5467 107.143 35.96C107.463 35.3556 107.623 34.6445 107.623 33.8267C107.623 32.9911 107.463 32.28 107.143 31.6933C106.823 31.1067 106.387 30.6534 105.836 30.3334C105.285 30.0134 104.663 29.8534 103.969 29.8534C103.276 29.8534 102.654 30.0134 102.103 30.3334C101.552 30.6534 101.107 31.1067 100.769 31.6933C100.449 32.28 100.289 32.9911 100.289 33.8267C100.289 34.6445 100.449 35.3556 100.769 35.96C101.107 36.5467 101.552 37 102.103 37.32C102.654 37.64 103.276 37.8 103.969 37.8ZM116.99 38.0667L117.097 33L123.79 26.6534H128.75L122.323 33.1867L120.163 34.9467L116.99 38.0667ZM113.55 41V21.2134H117.71V41H113.55ZM124.243 41L119.39 34.9733L122.003 31.7467L129.283 41H124.243ZM134.445 41.2133C133.219 41.2133 132.037 41.0711 130.899 40.7867C129.779 40.4844 128.89 40.1111 128.232 39.6667L129.619 36.68C130.277 37.0889 131.05 37.4267 131.939 37.6933C132.845 37.9422 133.734 38.0667 134.605 38.0667C135.565 38.0667 136.241 37.9511 136.632 37.72C137.041 37.4889 137.245 37.1689 137.245 36.76C137.245 36.4222 137.085 36.1733 136.765 36.0133C136.463 35.8356 136.054 35.7022 135.539 35.6133C135.023 35.5245 134.454 35.4356 133.832 35.3467C133.228 35.2578 132.614 35.1422 131.992 35C131.37 34.84 130.801 34.6089 130.285 34.3067C129.77 34.0045 129.352 33.5956 129.032 33.08C128.73 32.5645 128.579 31.8978 128.579 31.08C128.579 30.1734 128.837 29.3734 129.352 28.68C129.885 27.9867 130.65 27.4445 131.645 27.0534C132.641 26.6445 133.832 26.44 135.219 26.44C136.197 26.44 137.192 26.5467 138.205 26.76C139.219 26.9734 140.063 27.2845 140.739 27.6934L139.352 30.6534C138.659 30.2445 137.957 29.9689 137.245 29.8267C136.552 29.6667 135.877 29.5867 135.219 29.5867C134.294 29.5867 133.619 29.7111 133.192 29.96C132.765 30.2089 132.552 30.5289 132.552 30.92C132.552 31.2756 132.703 31.5422 133.005 31.72C133.325 31.8978 133.743 32.04 134.259 32.1467C134.774 32.2533 135.334 32.3511 135.939 32.44C136.561 32.5111 137.183 32.6267 137.805 32.7867C138.428 32.9467 138.988 33.1778 139.485 33.48C140.001 33.7645 140.419 34.1645 140.739 34.68C141.059 35.1778 141.219 35.8356 141.219 36.6533C141.219 37.5422 140.952 38.3333 140.419 39.0267C139.885 39.7022 139.112 40.2356 138.099 40.6267C137.103 41.0178 135.885 41.2133 134.445 41.2133ZM151.439 26.44C152.577 26.44 153.59 26.6711 154.479 27.1334C155.385 27.5778 156.097 28.2711 156.612 29.2134C157.128 30.1378 157.385 31.3289 157.385 32.7867V41H153.225V33.4267C153.225 32.2711 152.968 31.4178 152.452 30.8667C151.954 30.3156 151.243 30.04 150.319 30.04C149.661 30.04 149.065 30.1822 148.532 30.4667C148.017 30.7334 147.608 31.1511 147.305 31.72C147.021 32.2889 146.879 33.0178 146.879 33.9067V41H142.719V21.2134H146.879V30.6267L145.945 29.4267C146.461 28.4667 147.199 27.7289 148.159 27.2134C149.119 26.6978 150.212 26.44 151.439 26.44Z" fill="#2583DB"></path><path d="M166.868 41V22.3334H174.948C176.619 22.3334 178.059 22.6089 179.268 23.16C180.477 23.6934 181.411 24.4667 182.068 25.48C182.726 26.4934 183.055 27.7022 183.055 29.1067C183.055 30.4934 182.726 31.6933 182.068 32.7067C181.411 33.7022 180.477 34.4667 179.268 35C178.059 35.5333 176.619 35.8 174.948 35.8H169.268L171.188 33.9067V41H166.868ZM178.735 41L174.068 34.2267H178.682L183.402 41H178.735ZM171.188 34.3867L169.268 32.36H174.708C176.042 32.36 177.037 32.0756 177.695 31.5067C178.353 30.92 178.682 30.12 178.682 29.1067C178.682 28.0756 178.353 27.2756 177.695 26.7067C177.037 26.1378 176.042 25.8534 174.708 25.8534H169.268L171.188 23.8V34.3867ZM192.238 41.2133C190.602 41.2133 189.162 40.8933 187.918 40.2533C186.691 39.6133 185.74 38.7422 185.064 37.64C184.389 36.52 184.051 35.2489 184.051 33.8267C184.051 32.3867 184.38 31.1156 185.038 30.0134C185.713 28.8934 186.629 28.0222 187.784 27.4C188.94 26.76 190.247 26.44 191.704 26.44C193.109 26.44 194.371 26.7422 195.491 27.3467C196.629 27.9334 197.527 28.7867 198.184 29.9067C198.842 31.0089 199.171 32.3333 199.171 33.88C199.171 34.04 199.162 34.2267 199.144 34.44C199.127 34.6356 199.109 34.8222 199.091 35H187.438V32.5733H196.904L195.304 33.2933C195.304 32.5467 195.153 31.8978 194.851 31.3467C194.549 30.7956 194.131 30.3689 193.598 30.0667C193.064 29.7467 192.442 29.5867 191.731 29.5867C191.02 29.5867 190.389 29.7467 189.838 30.0667C189.304 30.3689 188.887 30.8045 188.584 31.3733C188.282 31.9245 188.131 32.5822 188.131 33.3467V33.9867C188.131 34.7689 188.3 35.4622 188.638 36.0667C188.993 36.6533 189.482 37.1067 190.104 37.4267C190.744 37.7289 191.491 37.88 192.344 37.88C193.109 37.88 193.775 37.7644 194.344 37.5333C194.931 37.3022 195.464 36.9556 195.944 36.4933L198.158 38.8933C197.5 39.64 196.673 40.2178 195.678 40.6267C194.682 41.0178 193.535 41.2133 192.238 41.2133ZM207.807 41.2133C206.261 41.2133 204.883 40.9022 203.674 40.28C202.465 39.64 201.514 38.76 200.821 37.64C200.145 36.52 199.807 35.2489 199.807 33.8267C199.807 32.3867 200.145 31.1156 200.821 30.0134C201.514 28.8934 202.465 28.0222 203.674 27.4C204.883 26.76 206.261 26.44 207.807 26.44C209.318 26.44 210.634 26.76 211.754 27.4C212.874 28.0222 213.701 28.92 214.234 30.0934L211.007 31.8267C210.634 31.1511 210.163 30.6534 209.594 30.3334C209.043 30.0134 208.438 29.8534 207.781 29.8534C207.069 29.8534 206.429 30.0134 205.861 30.3334C205.292 30.6534 204.838 31.1067 204.501 31.6933C204.181 32.28 204.021 32.9911 204.021 33.8267C204.021 34.6622 204.181 35.3733 204.501 35.96C204.838 36.5467 205.292 37 205.861 37.32C206.429 37.64 207.069 37.8 207.781 37.8C208.438 37.8 209.043 37.6489 209.594 37.3467C210.163 37.0267 210.634 36.52 211.007 35.8267L214.234 37.5867C213.701 38.7422 212.874 39.64 211.754 40.28C210.634 40.9022 209.318 41.2133 207.807 41.2133ZM215.562 41V26.6534H219.536V30.7067L218.976 29.5334C219.402 28.52 220.087 27.7556 221.029 27.24C221.971 26.7067 223.118 26.44 224.469 26.44V30.28C224.291 30.2622 224.131 30.2534 223.989 30.2534C223.847 30.2356 223.696 30.2267 223.536 30.2267C222.398 30.2267 221.474 30.5556 220.762 31.2134C220.069 31.8533 219.722 32.8578 219.722 34.2267V41H215.562ZM232.033 41.2133C230.842 41.2133 229.776 40.9822 228.833 40.52C227.909 40.0578 227.189 39.3556 226.673 38.4133C226.158 37.4533 225.9 36.2356 225.9 34.76V26.6534H230.06V34.1467C230.06 35.3378 230.309 36.2178 230.807 36.7867C231.322 37.3378 232.042 37.6133 232.967 37.6133C233.607 37.6133 234.176 37.48 234.673 37.2133C235.171 36.9289 235.562 36.5022 235.847 35.9333C236.131 35.3467 236.273 34.6178 236.273 33.7467V26.6534H240.433V41H236.487V37.0533L237.207 38.2C236.727 39.1956 236.016 39.9511 235.073 40.4667C234.149 40.9644 233.136 41.2133 232.033 41.2133ZM243.221 41V26.6534H247.381V41H243.221ZM245.301 24.6534C244.536 24.6534 243.914 24.4311 243.434 23.9867C242.954 23.5423 242.714 22.9911 242.714 22.3334C242.714 21.6756 242.954 21.1245 243.434 20.68C243.914 20.2356 244.536 20.0134 245.301 20.0134C246.065 20.0134 246.687 20.2267 247.167 20.6534C247.647 21.0623 247.887 21.5956 247.887 22.2534C247.887 22.9467 247.647 23.5245 247.167 23.9867C246.705 24.4311 246.083 24.6534 245.301 24.6534ZM256.042 41.2133C254.353 41.2133 253.037 40.7867 252.095 39.9333C251.153 39.0622 250.682 37.7733 250.682 36.0667V23.48H254.842V36.0133C254.842 36.6178 255.002 37.0889 255.322 37.4267C255.642 37.7467 256.077 37.9067 256.628 37.9067C257.286 37.9067 257.846 37.7289 258.308 37.3733L259.428 40.3067C259.002 40.6089 258.486 40.84 257.882 41C257.295 41.1422 256.682 41.2133 256.042 41.2133ZM248.468 30.1734V26.9734H258.415V30.1734H248.468ZM260.697 41V26.6534H264.857V41H260.697ZM262.777 24.6534C262.012 24.6534 261.39 24.4311 260.91 23.9867C260.43 23.5423 260.19 22.9911 260.19 22.3334C260.19 21.6756 260.43 21.1245 260.91 20.68C261.39 20.2356 262.012 20.0134 262.777 20.0134C263.541 20.0134 264.163 20.2267 264.643 20.6534C265.123 21.0623 265.363 21.5956 265.363 22.2534C265.363 22.9467 265.123 23.5245 264.643 23.9867C264.181 24.4311 263.559 24.6534 262.777 24.6534ZM276.371 26.44C277.509 26.44 278.522 26.6711 279.411 27.1334C280.318 27.5778 281.029 28.2711 281.544 29.2134C282.06 30.1378 282.318 31.3289 282.318 32.7867V41H278.158V33.4267C278.158 32.2711 277.9 31.4178 277.384 30.8667C276.886 30.3156 276.175 30.04 275.251 30.04C274.593 30.04 273.998 30.1822 273.464 30.4667C272.949 30.7334 272.54 31.1511 272.238 31.72C271.953 32.2889 271.811 33.0178 271.811 33.9067V41H267.651V26.6534H271.624V30.6267L270.878 29.4267C271.393 28.4667 272.131 27.7289 273.091 27.2134C274.051 26.6978 275.144 26.44 276.371 26.44ZM291.873 46.3867C290.521 46.3867 289.215 46.2178 287.953 45.88C286.708 45.56 285.668 45.0711 284.833 44.4133L286.486 41.4267C287.09 41.9244 287.855 42.3156 288.779 42.6C289.721 42.9022 290.646 43.0533 291.553 43.0533C293.028 43.0533 294.095 42.7244 294.753 42.0667C295.428 41.4089 295.766 40.4311 295.766 39.1333V36.9733L296.033 33.3733L295.979 29.7467V26.6534H299.926V38.6C299.926 41.2667 299.232 43.2311 297.846 44.4933C296.459 45.7555 294.468 46.3867 291.873 46.3867ZM291.233 40.3067C289.899 40.3067 288.69 40.0222 287.606 39.4533C286.539 38.8667 285.677 38.0578 285.019 37.0267C284.379 35.9778 284.059 34.76 284.059 33.3733C284.059 31.9689 284.379 30.7511 285.019 29.72C285.677 28.6711 286.539 27.8622 287.606 27.2934C288.69 26.7245 289.899 26.44 291.233 26.44C292.441 26.44 293.508 26.6889 294.433 27.1867C295.357 27.6667 296.077 28.4222 296.593 29.4534C297.108 30.4667 297.366 31.7733 297.366 33.3733C297.366 34.9556 297.108 36.2622 296.593 37.2933C296.077 38.3067 295.357 39.0622 294.433 39.56C293.508 40.0578 292.441 40.3067 291.233 40.3067ZM292.059 36.8933C292.788 36.8933 293.437 36.7511 294.006 36.4667C294.575 36.1645 295.019 35.7467 295.339 35.2133C295.659 34.68 295.819 34.0667 295.819 33.3733C295.819 32.6622 295.659 32.0489 295.339 31.5333C295.019 31 294.575 30.5911 294.006 30.3067C293.437 30.0045 292.788 29.8534 292.059 29.8534C291.33 29.8534 290.681 30.0045 290.113 30.3067C289.544 30.5911 289.09 31 288.753 31.5333C288.433 32.0489 288.273 32.6622 288.273 33.3733C288.273 34.0667 288.433 34.68 288.753 35.2133C289.09 35.7467 289.544 36.1645 290.113 36.4667C290.681 36.7511 291.33 36.8933 292.059 36.8933Z" fill="#1FA92F"></path><path d="M76.0508 60C75.5641 60 75.0908 59.93 74.6308 59.79C74.1775 59.6567 73.8075 59.4633 73.5208 59.21L73.9808 58.47C74.2275 58.6833 74.5308 58.85 74.8908 58.97C75.2508 59.0967 75.6275 59.16 76.0208 59.16C76.6475 59.16 77.1075 59.0133 77.4008 58.72C77.6941 58.4267 77.8408 57.98 77.8408 57.38V56.26L77.9408 55.21L77.8908 54.15V52.7H78.8008V57.28C78.8008 58.2133 78.5675 58.9 78.1008 59.34C77.6341 59.78 76.9508 60 76.0508 60ZM75.9308 57.78C75.4175 57.78 74.9575 57.6733 74.5508 57.46C74.1508 57.24 73.8308 56.9367 73.5908 56.55C73.3575 56.1633 73.2408 55.7167 73.2408 55.21C73.2408 54.6967 73.3575 54.25 73.5908 53.87C73.8308 53.4833 74.1508 53.1833 74.5508 52.97C74.9575 52.7567 75.4175 52.65 75.9308 52.65C76.3841 52.65 76.7975 52.7433 77.1708 52.93C77.5441 53.11 77.8408 53.39 78.0608 53.77C78.2875 54.15 78.4008 54.63 78.4008 55.21C78.4008 55.7833 78.2875 56.26 78.0608 56.64C77.8408 57.02 77.5441 57.3067 77.1708 57.5C76.7975 57.6867 76.3841 57.78 75.9308 57.78ZM76.0408 56.94C76.3941 56.94 76.7075 56.8667 76.9808 56.72C77.2541 56.5733 77.4675 56.37 77.6208 56.11C77.7808 55.85 77.8608 55.55 77.8608 55.21C77.8608 54.87 77.7808 54.57 77.6208 54.31C77.4675 54.05 77.2541 53.85 76.9808 53.71C76.7075 53.5633 76.3941 53.49 76.0408 53.49C75.6875 53.49 75.3708 53.5633 75.0908 53.71C74.8175 53.85 74.6008 54.05 74.4408 54.31C74.2875 54.57 74.2108 54.87 74.2108 55.21C74.2108 55.55 74.2875 55.85 74.4408 56.11C74.6008 56.37 74.8175 56.5733 75.0908 56.72C75.3708 56.8667 75.6875 56.94 76.0408 56.94ZM83.3351 58V50.58H84.2951V58H83.3351ZM91.098 58.06C90.5647 58.06 90.0914 57.9433 89.678 57.71C89.2647 57.4767 88.938 57.1567 88.698 56.75C88.458 56.3367 88.338 55.87 88.338 55.35C88.338 54.8233 88.458 54.3567 88.698 53.95C88.938 53.5433 89.2647 53.2267 89.678 53C90.0914 52.7667 90.5647 52.65 91.098 52.65C91.6247 52.65 92.0947 52.7667 92.508 53C92.928 53.2267 93.2547 53.5433 93.488 53.95C93.728 54.35 93.848 54.8167 93.848 55.35C93.848 55.8767 93.728 56.3433 93.488 56.75C93.2547 57.1567 92.928 57.4767 92.508 57.71C92.0947 57.9433 91.6247 58.06 91.098 58.06ZM91.098 57.22C91.438 57.22 91.7414 57.1433 92.008 56.99C92.2814 56.8367 92.4947 56.62 92.648 56.34C92.8014 56.0533 92.878 55.7233 92.878 55.35C92.878 54.97 92.8014 54.6433 92.648 54.37C92.4947 54.09 92.2814 53.8733 92.008 53.72C91.7414 53.5667 91.438 53.49 91.098 53.49C90.758 53.49 90.4547 53.5667 90.188 53.72C89.9214 53.8733 89.708 54.09 89.548 54.37C89.388 54.6433 89.308 54.97 89.308 55.35C89.308 55.7233 89.388 56.0533 89.548 56.34C89.708 56.62 89.9214 56.8367 90.188 56.99C90.4547 57.1433 90.758 57.22 91.098 57.22ZM100.686 58.06C100.232 58.06 99.8223 57.96 99.4557 57.76C99.0957 57.5533 98.809 57.25 98.5957 56.85C98.389 56.45 98.2857 55.95 98.2857 55.35C98.2857 54.75 98.3923 54.25 98.6057 53.85C98.8257 53.45 99.1157 53.15 99.4757 52.95C99.8423 52.75 100.246 52.65 100.686 52.65C101.206 52.65 101.666 52.7633 102.066 52.99C102.466 53.2167 102.782 53.5333 103.016 53.94C103.249 54.34 103.366 54.81 103.366 55.35C103.366 55.89 103.249 56.3633 103.016 56.77C102.782 57.1767 102.466 57.4933 102.066 57.72C101.666 57.9467 101.206 58.06 100.686 58.06ZM97.8757 58V50.58H98.8357V54.11L98.7357 55.34L98.7957 56.57V58H97.8757ZM100.606 57.22C100.946 57.22 101.249 57.1433 101.516 56.99C101.789 56.8367 102.002 56.62 102.156 56.34C102.316 56.0533 102.396 55.7233 102.396 55.35C102.396 54.97 102.316 54.6433 102.156 54.37C102.002 54.09 101.789 53.8733 101.516 53.72C101.249 53.5667 100.946 53.49 100.606 53.49C100.272 53.49 99.969 53.5667 99.6957 53.72C99.429 53.8733 99.2157 54.09 99.0557 54.37C98.9023 54.6433 98.8257 54.97 98.8257 55.35C98.8257 55.7233 98.9023 56.0533 99.0557 56.34C99.2157 56.62 99.429 56.8367 99.6957 56.99C99.969 57.1433 100.272 57.22 100.606 57.22ZM110.633 58V56.88L110.583 56.67V54.76C110.583 54.3533 110.463 54.04 110.223 53.82C109.99 53.5933 109.637 53.48 109.163 53.48C108.85 53.48 108.543 53.5333 108.243 53.64C107.943 53.74 107.69 53.8767 107.483 54.05L107.083 53.33C107.357 53.11 107.683 52.9433 108.063 52.83C108.45 52.71 108.853 52.65 109.273 52.65C110 52.65 110.56 52.8267 110.953 53.18C111.347 53.5333 111.543 54.0733 111.543 54.8V58H110.633ZM108.893 58.06C108.5 58.06 108.153 57.9933 107.853 57.86C107.56 57.7267 107.333 57.5433 107.173 57.31C107.013 57.07 106.933 56.8 106.933 56.5C106.933 56.2133 107 55.9533 107.133 55.72C107.273 55.4867 107.497 55.3 107.803 55.16C108.117 55.02 108.537 54.95 109.063 54.95H110.743V55.64H109.103C108.623 55.64 108.3 55.72 108.133 55.88C107.967 56.04 107.883 56.2333 107.883 56.46C107.883 56.72 107.987 56.93 108.193 57.09C108.4 57.2433 108.687 57.32 109.053 57.32C109.413 57.32 109.727 57.24 109.993 57.08C110.267 56.92 110.463 56.6867 110.583 56.38L110.773 57.04C110.647 57.3533 110.423 57.6033 110.103 57.79C109.783 57.97 109.38 58.06 108.893 58.06ZM116.02 58V50.58H116.98V58H116.02ZM128.418 58.06C127.978 58.06 127.558 58 127.158 57.88C126.765 57.76 126.455 57.6133 126.228 57.44L126.628 56.68C126.855 56.8333 127.135 56.9633 127.468 57.07C127.802 57.1767 128.142 57.23 128.488 57.23C128.935 57.23 129.255 57.1667 129.448 57.04C129.648 56.9133 129.748 56.7367 129.748 56.51C129.748 56.3433 129.688 56.2133 129.568 56.12C129.448 56.0267 129.288 55.9567 129.088 55.91C128.895 55.8633 128.678 55.8233 128.438 55.79C128.198 55.75 127.958 55.7033 127.718 55.65C127.478 55.59 127.258 55.51 127.058 55.41C126.858 55.3033 126.698 55.16 126.578 54.98C126.458 54.7933 126.398 54.5467 126.398 54.24C126.398 53.92 126.488 53.64 126.668 53.4C126.848 53.16 127.102 52.9767 127.428 52.85C127.762 52.7167 128.155 52.65 128.608 52.65C128.955 52.65 129.305 52.6933 129.658 52.78C130.018 52.86 130.312 52.9767 130.538 53.13L130.128 53.89C129.888 53.73 129.638 53.62 129.378 53.56C129.118 53.5 128.858 53.47 128.598 53.47C128.178 53.47 127.865 53.54 127.658 53.68C127.452 53.8133 127.348 53.9867 127.348 54.2C127.348 54.38 127.408 54.52 127.528 54.62C127.655 54.7133 127.815 54.7867 128.008 54.84C128.208 54.8933 128.428 54.94 128.668 54.98C128.908 55.0133 129.148 55.06 129.388 55.12C129.628 55.1733 129.845 55.25 130.038 55.35C130.238 55.45 130.398 55.59 130.518 55.77C130.645 55.95 130.708 56.19 130.708 56.49C130.708 56.81 130.615 57.0867 130.428 57.32C130.242 57.5533 129.978 57.7367 129.638 57.87C129.298 57.9967 128.892 58.06 128.418 58.06ZM141.238 52.65C141.665 52.65 142.041 52.7333 142.368 52.9C142.695 53.0667 142.948 53.32 143.128 53.66C143.315 54 143.408 54.43 143.408 54.95V58H142.448V55.06C142.448 54.5467 142.328 54.16 142.088 53.9C141.848 53.64 141.511 53.51 141.078 53.51C140.758 53.51 140.478 53.5767 140.238 53.71C139.998 53.8433 139.811 54.04 139.678 54.3C139.551 54.56 139.488 54.8833 139.488 55.27V58H138.528V55.06C138.528 54.5467 138.408 54.16 138.168 53.9C137.935 53.64 137.598 53.51 137.158 53.51C136.845 53.51 136.568 53.5767 136.328 53.71C136.088 53.8433 135.901 54.04 135.768 54.3C135.635 54.56 135.568 54.8833 135.568 55.27V58H134.608V52.7H135.528V54.11L135.378 53.75C135.545 53.4033 135.801 53.1333 136.148 52.94C136.495 52.7467 136.898 52.65 137.358 52.65C137.865 52.65 138.301 52.7767 138.668 53.03C139.035 53.2767 139.275 53.6533 139.388 54.16L138.998 54C139.158 53.5933 139.438 53.2667 139.838 53.02C140.238 52.7733 140.705 52.65 141.238 52.65ZM151.164 58V56.88L151.114 56.67V54.76C151.114 54.3533 150.994 54.04 150.754 53.82C150.521 53.5933 150.168 53.48 149.694 53.48C149.381 53.48 149.074 53.5333 148.774 53.64C148.474 53.74 148.221 53.8767 148.014 54.05L147.614 53.33C147.888 53.11 148.214 52.9433 148.594 52.83C148.981 52.71 149.384 52.65 149.804 52.65C150.531 52.65 151.091 52.8267 151.484 53.18C151.878 53.5333 152.074 54.0733 152.074 54.8V58H151.164ZM149.424 58.06C149.031 58.06 148.684 57.9933 148.384 57.86C148.091 57.7267 147.864 57.5433 147.704 57.31C147.544 57.07 147.464 56.8 147.464 56.5C147.464 56.2133 147.531 55.9533 147.664 55.72C147.804 55.4867 148.028 55.3 148.334 55.16C148.648 55.02 149.068 54.95 149.594 54.95H151.274V55.64H149.634C149.154 55.64 148.831 55.72 148.664 55.88C148.498 56.04 148.414 56.2333 148.414 56.46C148.414 56.72 148.518 56.93 148.724 57.09C148.931 57.2433 149.218 57.32 149.584 57.32C149.944 57.32 150.258 57.24 150.524 57.08C150.798 56.92 150.994 56.6867 151.114 56.38L151.304 57.04C151.178 57.3533 150.954 57.6033 150.634 57.79C150.314 57.97 149.911 58.06 149.424 58.06ZM156.551 58V52.7H157.471V54.14L157.381 53.78C157.528 53.4133 157.774 53.1333 158.121 52.94C158.468 52.7467 158.894 52.65 159.401 52.65V53.58C159.361 53.5733 159.321 53.57 159.281 53.57C159.248 53.57 159.214 53.57 159.181 53.57C158.668 53.57 158.261 53.7233 157.961 54.03C157.661 54.3367 157.511 54.78 157.511 55.36V58H156.551ZM165.319 58.06C164.786 58.06 164.372 57.9167 164.079 57.63C163.786 57.3433 163.639 56.9333 163.639 56.4V51.54H164.599V56.36C164.599 56.6467 164.669 56.8667 164.809 57.02C164.956 57.1733 165.162 57.25 165.429 57.25C165.729 57.25 165.979 57.1667 166.179 57L166.479 57.69C166.332 57.8167 166.156 57.91 165.949 57.97C165.749 58.03 165.539 58.06 165.319 58.06ZM162.739 53.49V52.7H166.119V53.49H162.739ZM171.86 58.06C171.42 58.06 171 58 170.6 57.88C170.206 57.76 169.896 57.6133 169.67 57.44L170.07 56.68C170.296 56.8333 170.576 56.9633 170.91 57.07C171.243 57.1767 171.583 57.23 171.93 57.23C172.376 57.23 172.696 57.1667 172.89 57.04C173.09 56.9133 173.19 56.7367 173.19 56.51C173.19 56.3433 173.13 56.2133 173.01 56.12C172.89 56.0267 172.73 55.9567 172.53 55.91C172.336 55.8633 172.12 55.8233 171.88 55.79C171.64 55.75 171.4 55.7033 171.16 55.65C170.92 55.59 170.7 55.51 170.5 55.41C170.3 55.3033 170.14 55.16 170.02 54.98C169.9 54.7933 169.84 54.5467 169.84 54.24C169.84 53.92 169.93 53.64 170.11 53.4C170.29 53.16 170.543 52.9767 170.87 52.85C171.203 52.7167 171.596 52.65 172.05 52.65C172.396 52.65 172.746 52.6933 173.1 52.78C173.46 52.86 173.753 52.9767 173.98 53.13L173.57 53.89C173.33 53.73 173.08 53.62 172.82 53.56C172.56 53.5 172.3 53.47 172.04 53.47C171.62 53.47 171.306 53.54 171.1 53.68C170.893 53.8133 170.79 53.9867 170.79 54.2C170.79 54.38 170.85 54.52 170.97 54.62C171.096 54.7133 171.256 54.7867 171.45 54.84C171.65 54.8933 171.87 54.94 172.11 54.98C172.35 55.0133 172.59 55.06 172.83 55.12C173.07 55.1733 173.286 55.25 173.48 55.35C173.68 55.45 173.84 55.59 173.96 55.77C174.086 55.95 174.15 56.19 174.15 56.49C174.15 56.81 174.056 57.0867 173.87 57.32C173.683 57.5533 173.42 57.7367 173.08 57.87C172.74 57.9967 172.333 58.06 171.86 58.06ZM180.319 58.06C179.786 58.06 179.313 57.9433 178.899 57.71C178.486 57.4767 178.159 57.1567 177.919 56.75C177.679 56.3367 177.559 55.87 177.559 55.35C177.559 54.8233 177.679 54.3567 177.919 53.95C178.159 53.5433 178.486 53.2267 178.899 53C179.313 52.7667 179.786 52.65 180.319 52.65C180.846 52.65 181.316 52.7667 181.729 53C182.149 53.2267 182.476 53.5433 182.709 53.95C182.949 54.35 183.069 54.8167 183.069 55.35C183.069 55.8767 182.949 56.3433 182.709 56.75C182.476 57.1567 182.149 57.4767 181.729 57.71C181.316 57.9433 180.846 58.06 180.319 58.06ZM180.319 57.22C180.659 57.22 180.963 57.1433 181.229 56.99C181.503 56.8367 181.716 56.62 181.869 56.34C182.023 56.0533 182.099 55.7233 182.099 55.35C182.099 54.97 182.023 54.6433 181.869 54.37C181.716 54.09 181.503 53.8733 181.229 53.72C180.963 53.5667 180.659 53.49 180.319 53.49C179.979 53.49 179.676 53.5667 179.409 53.72C179.143 53.8733 178.929 54.09 178.769 54.37C178.609 54.6433 178.529 54.97 178.529 55.35C178.529 55.7233 178.609 56.0533 178.769 56.34C178.929 56.62 179.143 56.8367 179.409 56.99C179.676 57.1433 179.979 57.22 180.319 57.22ZM189.327 58.06C188.874 58.06 188.474 57.9767 188.127 57.81C187.787 57.6433 187.52 57.39 187.327 57.05C187.14 56.7033 187.047 56.27 187.047 55.75V52.7H188.007V55.64C188.007 56.16 188.13 56.55 188.377 56.81C188.63 57.07 188.984 57.2 189.437 57.2C189.77 57.2 190.06 57.1333 190.307 57C190.554 56.86 190.744 56.66 190.877 56.4C191.01 56.1333 191.077 55.8133 191.077 55.44V52.7H192.037V58H191.127V56.57L191.277 56.95C191.104 57.3033 190.844 57.5767 190.497 57.77C190.15 57.9633 189.76 58.06 189.327 58.06ZM196.565 58V52.7H197.485V54.14L197.395 53.78C197.541 53.4133 197.788 53.1333 198.135 52.94C198.481 52.7467 198.908 52.65 199.415 52.65V53.58C199.375 53.5733 199.335 53.57 199.295 53.57C199.261 53.57 199.228 53.57 199.195 53.57C198.681 53.57 198.275 53.7233 197.975 54.03C197.675 54.3367 197.525 54.78 197.525 55.36V58H196.565ZM205.559 58.06C205.019 58.06 204.536 57.9433 204.109 57.71C203.689 57.4767 203.359 57.1567 203.119 56.75C202.879 56.3433 202.759 55.8767 202.759 55.35C202.759 54.8233 202.879 54.3567 203.119 53.95C203.359 53.5433 203.689 53.2267 204.109 53C204.536 52.7667 205.019 52.65 205.559 52.65C206.039 52.65 206.466 52.7467 206.839 52.94C207.219 53.1267 207.512 53.4067 207.719 53.78L206.989 54.25C206.816 53.99 206.602 53.8 206.349 53.68C206.102 53.5533 205.836 53.49 205.549 53.49C205.202 53.49 204.892 53.5667 204.619 53.72C204.346 53.8733 204.129 54.09 203.969 54.37C203.809 54.6433 203.729 54.97 203.729 55.35C203.729 55.73 203.809 56.06 203.969 56.34C204.129 56.62 204.346 56.8367 204.619 56.99C204.892 57.1433 205.202 57.22 205.549 57.22C205.836 57.22 206.102 57.16 206.349 57.04C206.602 56.9133 206.816 56.72 206.989 56.46L207.719 56.92C207.512 57.2867 207.219 57.57 206.839 57.77C206.466 57.9633 206.039 58.06 205.559 58.06ZM211.593 58V52.7H212.553V58H211.593ZM212.073 51.68C211.887 51.68 211.73 51.62 211.603 51.5C211.483 51.38 211.423 51.2333 211.423 51.06C211.423 50.88 211.483 50.73 211.603 50.61C211.73 50.49 211.887 50.43 212.073 50.43C212.26 50.43 212.413 50.49 212.533 50.61C212.66 50.7233 212.723 50.8667 212.723 51.04C212.723 51.22 212.663 51.3733 212.543 51.5C212.423 51.62 212.267 51.68 212.073 51.68ZM219.916 52.65C220.35 52.65 220.73 52.7333 221.056 52.9C221.39 53.0667 221.65 53.32 221.836 53.66C222.023 54 222.116 54.43 222.116 54.95V58H221.156V55.06C221.156 54.5467 221.03 54.16 220.776 53.9C220.53 53.64 220.18 53.51 219.726 53.51C219.386 53.51 219.09 53.5767 218.836 53.71C218.583 53.8433 218.386 54.04 218.246 54.3C218.113 54.56 218.046 54.8833 218.046 55.27V58H217.086V52.7H218.006V54.13L217.856 53.75C218.03 53.4033 218.296 53.1333 218.656 52.94C219.016 52.7467 219.436 52.65 219.916 52.65ZM228.913 60C228.426 60 227.953 59.93 227.493 59.79C227.04 59.6567 226.67 59.4633 226.383 59.21L226.843 58.47C227.09 58.6833 227.393 58.85 227.753 58.97C228.113 59.0967 228.49 59.16 228.883 59.16C229.51 59.16 229.97 59.0133 230.263 58.72C230.556 58.4267 230.703 57.98 230.703 57.38V56.26L230.803 55.21L230.753 54.15V52.7H231.663V57.28C231.663 58.2133 231.43 58.9 230.963 59.34C230.496 59.78 229.813 60 228.913 60ZM228.793 57.78C228.28 57.78 227.82 57.6733 227.413 57.46C227.013 57.24 226.693 56.9367 226.453 56.55C226.22 56.1633 226.103 55.7167 226.103 55.21C226.103 54.6967 226.22 54.25 226.453 53.87C226.693 53.4833 227.013 53.1833 227.413 52.97C227.82 52.7567 228.28 52.65 228.793 52.65C229.246 52.65 229.66 52.7433 230.033 52.93C230.406 53.11 230.703 53.39 230.923 53.77C231.15 54.15 231.263 54.63 231.263 55.21C231.263 55.7833 231.15 56.26 230.923 56.64C230.703 57.02 230.406 57.3067 230.033 57.5C229.66 57.6867 229.246 57.78 228.793 57.78ZM228.903 56.94C229.256 56.94 229.57 56.8667 229.843 56.72C230.116 56.5733 230.33 56.37 230.483 56.11C230.643 55.85 230.723 55.55 230.723 55.21C230.723 54.87 230.643 54.57 230.483 54.31C230.33 54.05 230.116 53.85 229.843 53.71C229.57 53.5633 229.256 53.49 228.903 53.49C228.55 53.49 228.233 53.5633 227.953 53.71C227.68 53.85 227.463 54.05 227.303 54.31C227.15 54.57 227.073 54.87 227.073 55.21C227.073 55.55 227.15 55.85 227.303 56.11C227.463 56.37 227.68 56.5733 227.953 56.72C228.233 56.8667 228.55 56.94 228.903 56.94ZM243.103 58.06C242.663 58.06 242.243 58 241.843 57.88C241.45 57.76 241.14 57.6133 240.913 57.44L241.313 56.68C241.54 56.8333 241.82 56.9633 242.153 57.07C242.486 57.1767 242.826 57.23 243.173 57.23C243.619 57.23 243.939 57.1667 244.133 57.04C244.333 56.9133 244.433 56.7367 244.433 56.51C244.433 56.3433 244.373 56.2133 244.253 56.12C244.133 56.0267 243.973 55.9567 243.773 55.91C243.579 55.8633 243.363 55.8233 243.123 55.79C242.883 55.75 242.643 55.7033 242.403 55.65C242.163 55.59 241.943 55.51 241.743 55.41C241.543 55.3033 241.383 55.16 241.263 54.98C241.143 54.7933 241.083 54.5467 241.083 54.24C241.083 53.92 241.173 53.64 241.353 53.4C241.533 53.16 241.786 52.9767 242.113 52.85C242.446 52.7167 242.839 52.65 243.293 52.65C243.639 52.65 243.989 52.6933 244.343 52.78C244.703 52.86 244.996 52.9767 245.223 53.13L244.813 53.89C244.573 53.73 244.323 53.62 244.063 53.56C243.803 53.5 243.543 53.47 243.283 53.47C242.863 53.47 242.549 53.54 242.343 53.68C242.136 53.8133 242.033 53.9867 242.033 54.2C242.033 54.38 242.093 54.52 242.213 54.62C242.34 54.7133 242.499 54.7867 242.693 54.84C242.893 54.8933 243.113 54.94 243.353 54.98C243.593 55.0133 243.833 55.06 244.073 55.12C244.313 55.1733 244.529 55.25 244.723 55.35C244.923 55.45 245.083 55.59 245.203 55.77C245.329 55.95 245.393 56.19 245.393 56.49C245.393 56.81 245.299 57.0867 245.113 57.32C244.926 57.5533 244.663 57.7367 244.323 57.87C243.983 57.9967 243.576 58.06 243.103 58.06ZM251.653 58.06C251.086 58.06 250.586 57.9433 250.153 57.71C249.726 57.4767 249.393 57.1567 249.153 56.75C248.919 56.3433 248.803 55.8767 248.803 55.35C248.803 54.8233 248.916 54.3567 249.143 53.95C249.376 53.5433 249.693 53.2267 250.093 53C250.499 52.7667 250.956 52.65 251.463 52.65C251.976 52.65 252.429 52.7633 252.823 52.99C253.216 53.2167 253.523 53.5367 253.743 53.95C253.969 54.3567 254.083 54.8333 254.083 55.38C254.083 55.42 254.079 55.4667 254.073 55.52C254.073 55.5733 254.069 55.6233 254.063 55.67H249.553V54.98H253.563L253.173 55.22C253.179 54.88 253.109 54.5767 252.963 54.31C252.816 54.0433 252.613 53.8367 252.353 53.69C252.099 53.5367 251.803 53.46 251.463 53.46C251.129 53.46 250.833 53.5367 250.573 53.69C250.313 53.8367 250.109 54.0467 249.963 54.32C249.816 54.5867 249.743 54.8933 249.743 55.24V55.4C249.743 55.7533 249.823 56.07 249.983 56.35C250.149 56.6233 250.379 56.8367 250.673 56.99C250.966 57.1433 251.303 57.22 251.683 57.22C251.996 57.22 252.279 57.1667 252.533 57.06C252.793 56.9533 253.019 56.7933 253.213 56.58L253.743 57.2C253.503 57.48 253.203 57.6933 252.843 57.84C252.489 57.9867 252.093 58.06 251.653 58.06ZM258.116 58V52.7H259.036V54.14L258.946 53.78C259.092 53.4133 259.339 53.1333 259.686 52.94C260.032 52.7467 260.459 52.65 260.966 52.65V53.58C260.926 53.5733 260.886 53.57 260.846 53.57C260.812 53.57 260.779 53.57 260.746 53.57C260.232 53.57 259.826 53.7233 259.526 54.03C259.226 54.3367 259.076 54.78 259.076 55.36V58H258.116ZM266.454 58L264.134 52.7H265.134L267.194 57.5H266.714L268.814 52.7H269.754L267.434 58H266.454ZM273.35 58V52.7H274.31V58H273.35ZM273.83 51.68C273.643 51.68 273.486 51.62 273.36 51.5C273.24 51.38 273.18 51.2333 273.18 51.06C273.18 50.88 273.24 50.73 273.36 50.61C273.486 50.49 273.643 50.43 273.83 50.43C274.016 50.43 274.17 50.49 274.29 50.61C274.416 50.7233 274.48 50.8667 274.48 51.04C274.48 51.22 274.42 51.3733 274.3 51.5C274.18 51.62 274.023 51.68 273.83 51.68ZM281.153 58.06C280.613 58.06 280.129 57.9433 279.703 57.71C279.283 57.4767 278.953 57.1567 278.713 56.75C278.473 56.3433 278.353 55.8767 278.353 55.35C278.353 54.8233 278.473 54.3567 278.713 53.95C278.953 53.5433 279.283 53.2267 279.703 53C280.129 52.7667 280.613 52.65 281.153 52.65C281.633 52.65 282.059 52.7467 282.433 52.94C282.813 53.1267 283.106 53.4067 283.313 53.78L282.583 54.25C282.409 53.99 282.196 53.8 281.943 53.68C281.696 53.5533 281.429 53.49 281.143 53.49C280.796 53.49 280.486 53.5667 280.213 53.72C279.939 53.8733 279.723 54.09 279.563 54.37C279.403 54.6433 279.323 54.97 279.323 55.35C279.323 55.73 279.403 56.06 279.563 56.34C279.723 56.62 279.939 56.8367 280.213 56.99C280.486 57.1433 280.796 57.22 281.143 57.22C281.429 57.22 281.696 57.16 281.943 57.04C282.196 56.9133 282.409 56.72 282.583 56.46L283.313 56.92C283.106 57.2867 282.813 57.57 282.433 57.77C282.059 57.9633 281.633 58.06 281.153 58.06ZM289.537 58.06C288.971 58.06 288.471 57.9433 288.037 57.71C287.611 57.4767 287.277 57.1567 287.037 56.75C286.804 56.3433 286.687 55.8767 286.687 55.35C286.687 54.8233 286.801 54.3567 287.027 53.95C287.261 53.5433 287.577 53.2267 287.977 53C288.384 52.7667 288.841 52.65 289.347 52.65C289.861 52.65 290.314 52.7633 290.707 52.99C291.101 53.2167 291.407 53.5367 291.627 53.95C291.854 54.3567 291.967 54.8333 291.967 55.38C291.967 55.42 291.964 55.4667 291.957 55.52C291.957 55.5733 291.954 55.6233 291.947 55.67H287.437V54.98H291.447L291.057 55.22C291.064 54.88 290.994 54.5767 290.847 54.31C290.701 54.0433 290.497 53.8367 290.237 53.69C289.984 53.5367 289.687 53.46 289.347 53.46C289.014 53.46 288.717 53.5367 288.457 53.69C288.197 53.8367 287.994 54.0467 287.847 54.32C287.701 54.5867 287.627 54.8933 287.627 55.24V55.4C287.627 55.7533 287.707 56.07 287.867 56.35C288.034 56.6233 288.264 56.8367 288.557 56.99C288.851 57.1433 289.187 57.22 289.567 57.22C289.881 57.22 290.164 57.1667 290.417 57.06C290.677 56.9533 290.904 56.7933 291.097 56.58L291.627 57.2C291.387 57.48 291.087 57.6933 290.727 57.84C290.374 57.9867 289.977 58.06 289.537 58.06ZM297.52 58.06C297.08 58.06 296.66 58 296.26 57.88C295.867 57.76 295.557 57.6133 295.33 57.44L295.73 56.68C295.957 56.8333 296.237 56.9633 296.57 57.07C296.904 57.1767 297.244 57.23 297.59 57.23C298.037 57.23 298.357 57.1667 298.55 57.04C298.75 56.9133 298.85 56.7367 298.85 56.51C298.85 56.3433 298.79 56.2133 298.67 56.12C298.55 56.0267 298.39 55.9567 298.19 55.91C297.997 55.8633 297.78 55.8233 297.54 55.79C297.3 55.75 297.06 55.7033 296.82 55.65C296.58 55.59 296.36 55.51 296.16 55.41C295.96 55.3033 295.8 55.16 295.68 54.98C295.56 54.7933 295.5 54.5467 295.5 54.24C295.5 53.92 295.59 53.64 295.77 53.4C295.95 53.16 296.204 52.9767 296.53 52.85C296.864 52.7167 297.257 52.65 297.71 52.65C298.057 52.65 298.407 52.6933 298.76 52.78C299.12 52.86 299.414 52.9767 299.64 53.13L299.23 53.89C298.99 53.73 298.74 53.62 298.48 53.56C298.22 53.5 297.96 53.47 297.7 53.47C297.28 53.47 296.967 53.54 296.76 53.68C296.554 53.8133 296.45 53.9867 296.45 54.2C296.45 54.38 296.51 54.52 296.63 54.62C296.757 54.7133 296.917 54.7867 297.11 54.84C297.31 54.8933 297.53 54.94 297.77 54.98C298.01 55.0133 298.25 55.06 298.49 55.12C298.73 55.1733 298.947 55.25 299.14 55.35C299.34 55.45 299.5 55.59 299.62 55.77C299.747 55.95 299.81 56.19 299.81 56.49C299.81 56.81 299.717 57.0867 299.53 57.32C299.344 57.5533 299.08 57.7367 298.74 57.87C298.4 57.9967 297.994 58.06 297.52 58.06Z" fill="#4C4C4C"></path></svg>